<svg width="23" height="23" viewBox="0 0 23 23" fill="none" xmlns="http://www.w3.org/2000/svg">
<path d="M11.25 10C14.375 10 17.0312 9.51042 19.2188 8.53125C21.4062 7.55208 22.5 6.375 22.5 5C22.5 3.625 21.4062 2.44792 19.2188 1.46875C17.0312 0.489583 14.375 0 11.25 0C8.125 0 5.46875 0.489583 3.28125 1.46875C1.09375 2.44792 0 3.625 0 5C0 6.375 1.09375 7.55208 3.28125 8.53125C5.46875 9.51042 8.125 10 11.25 10ZM11.25 13.125C12.1042 13.125 13.1719 13.0365 14.4531 12.8594C15.7344 12.6823 16.9688 12.3958 18.1562 12C19.3438 11.6042 20.3646 11.0885 21.2188 10.4531C22.0729 9.81771 22.5 9.04167 22.5 8.125V11.25C22.5 12.1667 22.0729 12.9427 21.2188 13.5781C20.3646 14.2135 19.3438 14.7292 18.1562 15.125C16.9688 15.5208 15.7344 15.8073 14.4531 15.9844C13.1719 16.1615 12.1042 16.25 11.25 16.25C10.3958 16.25 9.32812 16.1615 8.04688 15.9844C6.76562 15.8073 5.53125 15.5208 4.34375 15.125C3.15625 14.7292 2.13542 14.2135 1.28125 13.5781C0.427083 12.9427 0 12.1667 0 11.25V8.125C0 9.04167 0.427083 9.81771 1.28125 10.4531C2.13542 11.0885 3.15625 11.6042 4.34375 12C5.53125 12.3958 6.76562 12.6823 8.04688 12.8594C9.32812 13.0365 10.3958 13.125 11.25 13.125ZM11.25 19.375C12.1042 19.375 13.1719 19.2865 14.4531 19.1094C15.7344 18.9323 16.9688 18.6458 18.1562 18.25C19.3438 17.8542 20.3646 17.3385 21.2188 16.7031C22.0729 16.0677 22.5 15.2917 22.5 14.375V17.5C22.5 18.4167 22.0729 19.1927 21.2188 19.8281C20.3646 20.4635 19.3438 20.9792 18.1562 21.375C16.9688 21.7708 15.7344 22.0573 14.4531 22.2344C13.1719 22.4115 12.1042 22.5 11.25 22.5C10.3958 22.5 9.32812 22.4115 8.04688 22.2344C6.76562 22.0573 5.53125 21.7708 4.34375 21.375C3.15625 20.9792 2.13542 20.4635 1.28125 19.8281C0.427083 19.1927 0 18.4167 0 17.5V14.375C0 15.2917 0.427083 16.0677 1.28125 16.7031C2.13542 17.3385 3.15625 17.8542 4.34375 18.25C5.53125 18.6458 6.76562 18.9323 8.04688 19.1094C9.32812 19.2865 10.3958 19.375 11.25 19.375Z" fill="#00497D"/>
</svg>
