<svg width="28" height="20" viewBox="0 0 28 20" fill="none" xmlns="http://www.w3.org/2000/svg">
<path d="M6.875 20C4.97917 20 3.35938 19.3438 2.01562 18.0312C0.671875 16.7188 0 15.1146 0 13.2188C0 11.5938 0.489583 10.1458 1.46875 8.875C2.44792 7.60417 3.72917 6.79167 5.3125 6.4375C5.83333 4.52083 6.875 2.96875 8.4375 1.78125C10 0.59375 11.7708 0 13.75 0C16.1875 0 18.2552 0.848958 19.9531 2.54688C21.651 4.24479 22.5 6.3125 22.5 8.75C23.9375 8.91667 25.1302 9.53646 26.0781 10.6094C27.026 11.6823 27.5 12.9375 27.5 14.375C27.5 15.9375 26.9531 17.2656 25.8594 18.3594C24.7656 19.4531 23.4375 20 21.875 20H6.875Z" fill="#00497D"/>
</svg>
