<svg width="25" height="25" viewBox="0 0 25 25" fill="none" xmlns="http://www.w3.org/2000/svg">
<path d="M8.5 11.1875L11.1875 8.46875L9.4375 6.6875L8.0625 8.0625L6.3125 6.3125L7.65625 4.9375L6.25 3.53125L3.53125 6.25L8.5 11.1875ZM18.75 21.4688L21.4688 18.75L20.0625 17.3438L18.6875 18.6875L16.9375 16.9375L18.2812 15.5625L16.5 13.8125L13.8125 16.5L18.75 21.4688ZM17.7812 5.53125L19.5312 7.28125L21.2812 5.53125L19.5 3.75L17.7812 5.53125ZM6.5625 23.75H1.25V18.4375L6.71875 12.9688L0 6.25L6.25 0L13 6.75L17.7188 2C17.9688 1.75 18.25 1.5625 18.5625 1.4375C18.875 1.3125 19.1979 1.25 19.5312 1.25C19.8646 1.25 20.1875 1.3125 20.5 1.4375C20.8125 1.5625 21.0938 1.75 21.3438 2L23 3.6875C23.25 3.9375 23.4375 4.21875 23.5625 4.53125C23.6875 4.84375 23.75 5.16667 23.75 5.5C23.75 5.83333 23.6875 6.15104 23.5625 6.45312C23.4375 6.75521 23.25 7.03125 23 7.28125L18.2812 12.0312L25 18.75L18.75 25L12.0312 18.2812L6.5625 23.75Z" fill="#00497D"/>
</svg>
